<svg xmlns:cc="http://creativecommons.org/ns#" xmlns:dc="http://purl.org/dc/elements/1.1/" xmlns:inkscape="http://www.inkscape.org/namespaces/inkscape" xmlns:rdf="http://www.w3.org/1999/02/22-rdf-syntax-ns#" xmlns:sodipodi="http://sodipodi.sourceforge.net/DTD/sodipodi-0.dtd" xmlns:svg="http://www.w3.org/2000/svg" xmlns="http://www.w3.org/2000/svg" xmlns:xlink="http://www.w3.org/1999/xlink" id="svg3476" inkscape:version="0.91 r13725" sodipodi:docname="CSS3.svg" x="0px" y="0px" viewBox="0 0 250 250" style="enable-background:new 0 0 250 250;" xml:space="preserve">
<style type="text/css">
	.st0{fill:#264DE4;}
	.st1{fill:#2965F1;}
	.st2{fill:#EBEBEB;}
	.st3{fill:#FFFFFF;}
</style>

<g id="layer1" transform="translate(-193.633,-276.3622)" inkscape:groupmode="layer" inkscape:label="Calque 1">
	<g id="g3013" transform="translate(119,276.3622)">
		<polygon id="polygon2989" class="st0" points="259,74.1 248.2,195.3 199.6,208.8 151.1,195.3 140.3,74.1   "></polygon>
		<polygon id="polygon2991" class="st1" points="238.9,187.6 248.2,84 199.6,84 199.6,198.5   "></polygon>
		<polygon id="polygon2993" class="st2" points="165,129 166.4,143.9 199.6,143.9 199.6,129   "></polygon>
		<polygon id="polygon2995" class="st2" points="199.6,98.9 199.6,98.9 162.4,98.9 163.7,113.8 199.6,113.8   "></polygon>
		<polygon id="polygon2997" class="st2" points="199.6,183.1 199.6,167.6 199.6,167.6 183,163.2 182,151.3 173.9,151.3 167,151.3     169.1,174.6 199.6,183.1   "></polygon>
		<path id="path2999" inkscape:connector-curvature="0" d="M168.2,41.2h18v7.5h-10.5v7.5h10.5v7.5h-18V41.2z"></path>
		<path id="path3001" inkscape:connector-curvature="0" d="M189.8,41.2h18v6.5h-10.5v1.3h10.5v15.1h-18v-6.9h10.5v-1.3h-10.5V41.2z"></path>
		<path id="path3003" inkscape:connector-curvature="0" d="M211.4,41.2h18v6.5h-10.5v1.3h10.5v15.1h-18v-6.9h10.5v-1.3h-10.5V41.2z"></path>
		<polygon id="polygon3005" class="st3" points="217.9,143.9 216.2,163.1 199.6,167.6 199.6,183.1 230.1,174.6 230.3,172.1     233.8,133 234.1,129 236.8,98.9 199.6,98.9 199.6,113.8 220.5,113.8 219.2,129 199.6,129 199.6,143.9   "></polygon>
	</g>
</g>
</svg>