<svg xmlns="http://www.w3.org/2000/svg" xmlns:xlink="http://www.w3.org/1999/xlink" id="Layer_1" x="0px" y="0px" viewBox="0 0 250 250" style="enable-background:new 0 0 250 250;" xml:space="preserve">
<style type="text/css">
	.st0{fill:#F05133;}
</style>
<g>
	<path class="st0" d="M216.4,116.5l-82.9-82.9c-4.8-4.8-12.5-4.8-17.3,0L98.9,50.9l21.9,21.9c5.1-1.7,10.9-0.6,14.9,3.4   c4.1,4.1,5.2,9.9,3.4,15.1l21.1,21.1c5.1-1.8,11-0.6,15.1,3.4c5.7,5.7,5.7,14.9,0,20.6c-5.7,5.7-14.9,5.7-20.6,0   c-4.2-4.2-5.4-10.6-3.1-15.9L132,100.9v51.7c1.4,0.7,2.7,1.6,3.8,2.7c5.7,5.7,5.7,14.9,0,20.6c-5.7,5.7-14.9,5.7-20.6,0   c-5.7-5.7-5.7-14.9,0-20.6c1.4-1.4,3-2.5,4.8-3.2V99.9c-1.8-0.7-3.4-1.8-4.8-3.2c-4.3-4.3-5.4-10.7-3.1-16L90.5,59.3l-56.8,56.9   c-4.8,4.8-4.8,12.5,0,17.3l83,82.9c4.8,4.8,12.5,4.8,17.3,0l82.6-82.6C221.2,129.1,221.2,121.3,216.4,116.5z"></path>
</g>
</svg>