<svg xmlns="http://www.w3.org/2000/svg" xmlns:xlink="http://www.w3.org/1999/xlink" id="Layer_1" x="0px" y="0px" viewBox="0 0 250 250" style="enable-background:new 0 0 250 250;" xml:space="preserve">
<style type="text/css">
	.st0{fill:#E44D26;}
	.st1{fill:#F16529;}
	.st2{fill:#EBEBEB;}
	.st3{fill:#FFFFFF;}
</style>
<path d="M72,33.2h8.3v8.2h7.6v-8.2h8.3v24.8h-8.3v-8.3h-7.5v8.3H72 M107.1,41.4h-7.3v-8.3h22.9v8.3h-7.4v16.5h-8.3 M126.2,33.2h8.7  l5.3,8.8l5.3-8.8h8.7v24.8h-8.3V45.7l-5.8,8.9l-5.8-8.9v12.3h-8.1 M158.3,33.2h8.3v16.6h11.7v8.2h-20"></path>
<path class="st0" d="M71.8,202.1L59.9,69.2h130.2L178.2,202l-53.3,14.8"></path>
<path class="st1" d="M125,205.6V80.1h53.2l-10.1,113.4"></path>
<path class="st2" d="M84.1,96.4H125v16.3h-23.1l1.5,16.7H125v16.3H88.5 M89.3,153.8h16.4l1.1,13l18.2,4.9v17l-33.4-9.3"></path>
<path class="st3" d="M165.7,96.4h-40.8v16.3h39.3 M162.8,129.4h-37.9v16.3H145l-1.9,21.2l-18.2,4.9v16.9l33.4-9.2"></path>
</svg>